<?xml version='1.0' encoding='utf-8'?>
<svg xmlns="http://www.w3.org/2000/svg" version="1.1" viewBox="0 0 115.42 120.68">
 <g transform="translate(-317.29 -472.02)">
  <g transform="translate(-7256.5 -142.09)">
   <g stroke-width="2">
    <g stroke="#3771c8">
     <g fill="none">
      <path d="m7650.4 725.57c13.466 0.75823 24.994-1.7236 37.769 1.9938"/>
      <path d="m7616.2 727.29c-13.418 1.5842-31.291-3.4206-41.42-2.3719"/>
     </g>
     <path d="m7625.3 639.92c0.8619-19.246 27.764 12.169 10.982 8.1599" fill="#a5bfe6"/>
     <path d="m7602.1 652.17c4.5623 5.9729-1.772 14.505 3.8267 19.962 4.3019 4.1926 14.417 2.6344 19.841 1.7879 27.035-4.2192 13.032-29.395 0.1058-33.598-4.095-1.3314-11.765 2.2051-15.764 3.3417-6.1758 1.7557-8.5164 2.967-8.4722 9.0883" fill="#fff"/>
     <path d="m7622.9 665.84c4.6327-9.8958-9.6166-0.62088-0.09-0.40908" fill="#a5bfe6"/>
     <path d="m7628.5 668.34c0.6417-1.61 2.623-1.1058 2.9644-1.1149" fill="none"/>
     <g fill="#a5bfe6">
      <path d="m7625.8 656.74c-0.7132-1.4083-1.5692-2.9686-1.5046-4.6014 0.2231-5.6495 8.8768-6.0428 10.071-0.67308 1.1614 5.223-5.7473 11.786-8.566 5.2745z"/>
      <path d="m7616.7 659.27c-12.197-20.752-11.19 17.611 0 0z"/>
      <path d="m7603.1 646.42c-11.249-7.6229-12.701 16.004 1.5199 11.449"/>
     </g>
     <g fill="#fff">
      <path d="m7634.2 647.25c-2.6021-1.5746-7.5684-3.3018-9.4602-3.88"/>
      <path d="m7608.5 649.3c-4.8265 2.3542 0.054 0.32234 0 0z"/>
     </g>
     <path d="m7603.8 660.02c1.6958-4.3205-0.9008-9.9072-0.1583-13.49" fill="#f2f2f2"/>
     <g fill="none">
      <path d="m7598.6 647.91c-2.2761 2.3489-0.7846 4.7182 1.8543 5.3836"/>
      <path d="m7628.3 637.35c3.8857-1.4369 9.2347 5.5615 8.1455 7.554"/>
     </g>
    </g>
    <path d="m7614.9 661.91c-0.908 0.0975-1.654-0.47214-2.248-1.0872-0.992-1.0263-1.3518-2.6518-1.1941-3.9307 0.6125-5.4609 10.028 3.1826 3.5235 4.9931" fill="#3771c8" stroke="#fff"/>
   </g>
   <path d="m7613.7 657.31c-1.4426 1.1227 1.3514 2.1136 0.6114 0.37423-0.1519-0.35758-0.2879-0.30889-0.5764-0.28638" fill="#fff"/>
   <g stroke-width="2">
    <path d="m7616.7 659.27c-12.197-20.752-11.19 17.611 0 0z" fill="none" stroke="#3771c8"/>
    <path d="m7631.2 658.11c0.8122-0.35884 1.08-1.3048 1.194-2.2199 0.1907-1.5274-0.5107-3.3374-1.4275-4.5401-3.8653-5.1656-6.3509 8.2313 0.1509 6.776" fill="#3771c8" stroke="#fff"/>
   </g>
   <path d="m7629.5 653.2c2.1506 0.23905-0.069 2.9487-0.3888 0.75069-0.066-0.45173 0.1014-0.48645 0.4073-0.6411" fill="#fff"/>
   <g stroke="#3771c8" stroke-width="2">
    <g fill="#a5bfe6">
     <path d="m7643 671.95c1.2935-2.9734-0.1414-14.075 1.6102-19.483 0.6687-2.0641 2.0552-4.0023 4.0789-4.8915 1.7146-0.75342 3.6409-0.63255 4.6104 1.1773 0.4755 0.88754-1.4217 5.7244-1.3975 6.9879 0.1433 7.451 5.8209 20.274 1.5267 27.04-4.64 7.3114-11.47 0.14494-13.323-4.9675-0.9251-2.5531-1.7527-5.1769-2.6205-7.7323 4.8656-6.0221 5.3209-10.151 3.461-12.619 1.0735-0.8676 0.6762-0.32308 2.2889 0.85318"/>
     <path d="m7603 677.7c-0.5842-1.3686-4.9721-11.905 0.2583-9.8666 2.297 6.0388 4.4134 5.4265 6.6233 6.2587 1.8099 5.899 7.9595 15.646-1.5723 18.875-2.168 0.7343-6.0094-0.0672-7.7171-1.5419-9.1491-7.9016-14.56-40.4 3.0382-14.31"/>
     <path d="m7649.1 696.9c-0.9133 10.119-1.1434 20.618 0.7672 30.648 0.1553 0.81562 1.926 0.40578 1.633 1.7242-0.4962 2.233-3.2833 3.3049-5.3017 3.6003-3.3365 0.48825-9.5927 1.6382-11.72-1.9445-3.3998-5.726-1.1021-17.421-3.1977-22.764"/>
     <path d="m7612.7 698.65c2.4082 9.8706 4.1972 20.219 3.7996 30.421-0.032 0.82966-1.8442 0.68773-1.3584 1.9479 0.8228 2.1343 3.7383 2.7798 5.7782 2.7717 3.372-0.0134 9.7297 0.19323 11.3-3.6659 2.5104-6.168-1.5013-17.391-0.2235-22.986"/>
    </g>
    <path d="m7613.8 685.89c-12.029 30.285 44.732 25.318 34.788 0.10634" fill="#fff"/>
    <path d="m7603.1 675.96c2.6076 2.974 4.2175 7.7169 4.5438 10.849" fill="#a5bfe6"/>
   </g>
   <g transform="matrix(.79654 0 0 .79654 1548.4 113.02)" fill="#3771c8" font-family="Bitstream Vera Sans">
    <text x="7664.5981" y="660.65356" font-size="36.166px"><tspan x="7664.5981" y="660.65356" font-family="MgOpen Modata" letter-spacing="-.71709">?</tspan>
</text>
    <g font-size="20.08px" stroke="#3771c8">
     <text x="7682.5981" y="674.65356" stroke-width=".879"><tspan x="7682.5981" y="674.65356" font-family="MgOpen Modata" letter-spacing="-.39814">?</tspan>
</text>
     <text x="7686.0981" y="645.15356" stroke-width="1.255"><tspan x="7686.0981" y="645.15356" font-family="MgOpen Modata" letter-spacing="-.39814">?</tspan>
</text>
    </g>
   </g>
   <path d="m7625.8 656.74c-0.7132-1.4083-1.5692-2.9686-1.5046-4.6014 0.2231-5.6495 8.8768-6.0428 10.071-0.67308 1.1614 5.223-5.7473 11.786-8.566 5.2745z" fill="none" stroke="#3771c8" stroke-width="2"/>
  </g>
 </g>
</svg>