<?xml version="1.0" encoding="UTF-8"?>
<!-- Generated by Pixelmator Pro 3.5.7 -->
<svg width="103" height="109" viewBox="0 0 103 109" xmlns="http://www.w3.org/2000/svg">
    <path id="Path" fill="none" stroke="#485cff" stroke-width="2" stroke-linecap="round" stroke-linejoin="round" d="M 43.237656 46.443424 C 44.505322 46.438759 45.718987 45.782429 46.359653 44.757423 C 46.367653 44.744759 46.712654 44.471764 46.734322 44.320427 C 46.812653 43.772766 47.171654 43.19976 47.171654 42.57209 C 47.171654 38.887764 47.10899 35.203766 47.10899 31.519562 C 47.10899 31.392967 47.171654 31.27153 47.171654 31.144928 C 47.171654 25.649895 47.109653 20.154564 47.171654 14.659904 C 47.172653 14.571602 47.296318 14.535034 47.35899 14.472572 C 47.317322 14.430939 47.235985 14.40654 47.233986 14.347702 C 47.193985 13.203606 47.273987 12.057404 47.233986 10.913307 C 47.173988 9.198769 47.10899 6.771706 47.10899 5.168541 C 47.10899 3.438377 46.063656 2.431694 44.73632 1.546837 C 44.596657 1.453758 44.404655 1.485603 44.236656 1.48439 C 38.575321 1.443665 32.913658 1.463127 27.252161 1.421951 C 26.836727 1.41893 26.719358 1.30954 26.253059 1.48439 C 26.155626 1.520935 26.044928 1.483803 25.940863 1.48439 C 22.402395 1.504608 18.864031 1.546837 15.325531 1.546837 C 11.849498 1.546837 8.371499 1.429077 4.897499 1.546837 C 4.098032 1.573936 2.348067 3.468201 2.337333 4.294334 C 2.317333 5.834602 2.295167 7.37487 2.2749 8.915138 C 2.271066 9.206505 2.282367 9.498032 2.2749 9.789337 C 2.249433 10.782036 2.279433 11.115837 2.2749 11.849976 C 2.254333 15.180267 2.212434 18.510506 2.212434 21.840866 C 2.212434 22.548569 2.216834 23.256264 2.212434 23.963936 C 2.172233 30.457962 2.15 36.952095 2.15 43.446091 C 2.15 43.572762 2.161033 43.705093 2.212434 43.820755 C 2.882467 45.328426 4.145766 46.308762 5.834133 46.31876 C 12.744431 46.358429 37.888325 46.464096 43.237656 46.443424 Z M 13.396131 53.826427 C 13.26753 53.839428 12.763398 53.831093 12.242464 53.994427 C 11.721531 54.157429 11.183831 54.492092 10.988098 55.190758 C 10.673965 56.312096 10.584198 87.972748 11.140732 89.230423 C 11.697265 90.487747 11.768998 90.510086 12.577897 90.990753 C 13.386797 91.47142 44.070988 91.526413 46.734322 91.46508 C 47.532322 91.446747 49.411655 89.808083 49.606987 89.092087 C 49.749321 88.570084 49.731651 87.978416 49.731651 87.406082 C 49.731651 82.431755 49.731651 63.190754 49.731651 57.995426 C 49.731651 55.637093 48.220654 54.012424 45.860321 53.999092 C 42.529991 53.980427 13.501731 53.815762 13.396131 53.826427 Z M 68.76432 69.11042 C 67.643318 69.092758 66.522316 69.194756 65.708984 69.859756 C 65.070648 70.381424 64.184982 71.274094 64.181313 71.982758 C 64.130653 82.327423 64.181313 92.672409 64.181313 103.017082 C 64.181313 105.089417 66.458649 106.201752 68.687981 106.201752 C 71.335648 106.201752 91.117973 106.28508 98.246971 106.264084 C 99.903305 106.259079 101.82164 104.464417 102.065971 103.266747 C 102.128639 102.958748 102.167305 74.81942 102.142303 73.481415 C 102.109306 71.735092 101.194641 69.053757 98.475975 68.985428 C 96.872643 68.945091 73.08931 69.178421 68.76432 69.11042 Z M 58.403652 62.96109 C 60.717983 63.789089 88.008644 63.323753 89.236313 63.279091 C 90.700645 63.225754 92.290642 61.207756 92.29631 59.844757 C 92.337639 49.500092 92.457642 39.296097 92.436974 28.951302 C 92.434975 27.880898 91.107643 26.804932 90.313972 26.328697 C 89.993645 26.136566 58.433651 26.469231 58.433651 26.469231 C 58.433651 26.469231 56.696651 27.058434 56.515652 29.417892 C 56.044987 35.550095 56.22332 60.153423 56.516319 60.93409 C 57.010654 62.250755 58.403652 62.96109 58.403652 62.96109 Z M 60.846649 50.439758 C 61.198986 50.792091 61.373318 51.448429 61.658321 51.876091 C 62.785984 53.567429 64.554314 55.259762 66.403976 56.184761 C 71.82531 58.895088 78.031311 57.399422 81.952316 52.875092 C 83.052979 51.605427 84.250313 49.415424 84.449982 47.817089 C 84.537308 47.119759 84.527649 45.429092 84.949638 45.007427 C 84.200974 44.258759 83.291649 43.644432 82.701645 42.75943 C 81.778641 41.374763 83.36364 39.799423 84.449982 39.075096 C 83.408981 38.034096 83.025314 36.458435 81.515312 35.70343 C 79.029648 34.460426 75.957649 34.767097 73.897316 36.827095 C 73.356316 37.368095 73.013977 38.028763 72.648315 38.638092 C 72.559319 38.78643 72.634979 39.103096 72.523651 39.262428 C 72.42231 39.407097 72.18998 39.465431 72.148979 39.6371 C 72.073982 39.94976 72.156647 40.733093 72.148979 41.198425 C 72.129311 42.343094 72.106316 43.487762 72.086311 44.632759 C 72.084976 44.710754 72.111977 44.942421 71.961647 44.944756 C 67.903313 45.00676 63.843651 44.903763 59.784985 44.944756 C 59.262981 44.950089 59.639317 45.984428 59.660316 46.506096 C 59.693317 47.332428 60.024319 48.670425 60.409649 49.440758 C 60.526314 49.674427 60.963982 50.20509 60.846649 50.439758 Z M 27.814161 76.47876 C 27.879993 76.544418 27.997559 76.538422 28.063929 76.603424 C 30.478125 78.976418 32.840992 81.401085 35.244991 83.784416 C 35.546322 84.08342 35.872993 84.101082 36.30632 84.034424 C 36.800655 83.95842 36.985657 83.248085 36.993324 82.847748 C 37.032658 80.829086 37.055656 78.810089 37.055656 76.790756 C 37.055656 76.744423 37.013988 76.707756 36.993324 76.666092 C 37.08699 76.572418 37.08699 76.572418 37.180656 76.47876 C 37.85099 76.813751 38.678989 76.541092 39.428658 76.541092 C 41.180656 76.541092 42.285656 75.335419 42.300987 73.606422 C 42.321323 71.316757 42.300987 69.027084 42.300987 66.737427 C 42.300987 65.762421 41.982986 65.108421 41.301987 64.427094 C 40.886658 64.011749 40.168987 63.931423 39.61599 63.927753 C 33.871326 63.886421 28.126427 63.865093 22.381596 63.865093 C 22.048029 63.865093 21.500229 63.900093 21.195162 64.052429 C 20.087528 64.606422 19.706463 65.542419 19.696529 66.675095 C 19.676096 69.006424 19.654562 71.337418 19.634096 73.668755 C 19.618963 75.395088 20.770329 76.44075 22.444029 76.47876 C 24.192127 76.518417 25.940729 76.541092 27.689262 76.541092 C 27.735826 76.541092 27.772528 76.49942 27.814161 76.47876 Z M 14.014197 19.842705 C 13.162865 20.694031 11.850831 19.737968 10.892065 20.217369 C 7.900898 21.712936 7.274965 25.402901 10.392498 27.27343 C 11.418864 27.889267 13.171098 27.054764 14.014197 27.897865 C 14.192163 27.719933 14.10643 27.821968 14.263997 27.585663 C 14.305596 27.606468 14.342331 27.647964 14.388864 27.648102 C 21.195162 27.6688 28.001526 27.627464 34.807659 27.648102 C 34.873657 27.648293 34.932655 27.689728 34.994991 27.710533 C 34.994991 27.894302 34.965656 27.805992 35.119991 27.960297 C 35.662327 27.418098 37.851322 27.642128 38.928989 27.210999 C 39.661655 26.9179 40.088322 26.118965 40.427658 25.525032 C 41.557655 23.54763 40.415321 21.24157 38.491989 20.2798 C 37.50499 19.78627 35.994659 20.71743 35.182323 19.905136 C 34.890324 20.197304 35.049656 20.15583 34.745323 20.1549 C 28.001495 20.1343 21.257662 20.092468 14.513763 20.092468 C 14.159564 20.092468 14.230697 20.167435 14.014197 19.842705 Z M 77.768646 78.476753 C 77.568977 78.498421 77.394646 78.713753 77.393982 78.914085 C 77.373314 84.742088 77.33165 90.570084 77.33165 96.398079 C 77.33165 96.915749 78.152977 96.978416 78.45565 96.897751 C 78.688644 96.835419 78.967644 96.454414 79.204979 96.335747 C 80.327644 95.774414 81.436981 94.868416 82.514313 94.150078 C 84.644646 92.729752 86.864311 91.34642 88.883644 89.904083 C 89.542641 89.433083 91.135979 88.812416 91.50631 88.030746 C 91.882645 87.235748 89.799644 85.949417 89.133308 85.533081 C 86.51931 83.899078 83.769646 82.019417 81.078308 80.225418 C 80.070984 79.553757 78.928986 78.351089 77.768646 78.476753 Z M 23.380693 12.661736 C 23.100161 12.673668 20.907295 13.055435 20.320963 13.348602 C 18.604496 14.206841 17.295897 15.249702 15.825064 16.720535 C 15.237931 17.307671 15.007896 18.225899 14.513763 18.843605 C 14.306897 19.102165 14.004432 19.589066 13.951765 19.905136 C 13.889798 20.276901 14.215864 20.280502 14.451298 20.2798 C 21.195162 20.2593 27.939026 20.217369 34.682991 20.217369 C 35.999989 20.217369 33.854992 17.302032 33.371658 16.782967 C 32.839989 16.211967 32.299656 15.648705 31.748091 15.097 C 29.540192 12.889137 26.33486 12.535973 23.380693 12.661736 Z M 14.263997 27.460762 C 13.512665 27.796196 15.435197 30.55513 15.825064 30.957596 C 16.408863 31.560226 16.980164 32.175133 17.573463 32.768433 C 17.752195 32.947166 18.237631 33.261597 18.447662 33.392868 C 19.354563 33.959763 20.626396 34.659424 21.632296 34.891434 C 22.159994 35.013428 22.721596 34.864761 23.255795 34.954094 C 27.414127 35.647095 30.541225 33.948097 33.371658 31.020027 C 34.037323 30.331429 35.058655 28.765129 35.182323 27.897865 C 35.217655 27.650429 35.098324 27.460068 34.870323 27.460762 C 28.043125 27.481468 21.216028 27.523201 14.388864 27.523201 C 14.342331 27.523201 14.306497 27.441803 14.263997 27.460762 Z M 85.886307 37.826424 C 85.030647 37.861427 84.608307 38.729759 84.012978 39.325096 C 83.439644 39.898094 82.427979 40.326096 82.389641 41.135757 C 82.306313 42.885765 83.228645 43.536095 84.449982 44.757423 C 84.815643 45.123096 85.122978 45.69743 85.636642 45.75676 C 86.111977 45.811424 86.595642 45.794762 87.072647 45.75676 C 88.026306 45.680428 88.517975 43.919426 88.19664 43.196426 C 87.957314 42.657761 87.387642 42.338097 87.010307 41.885094 C 86.983643 41.853096 86.983643 41.792099 87.010307 41.760094 C 87.262642 41.457428 87.986977 40.953094 88.134308 40.511429 C 88.767311 38.612427 87.563309 37.757431 85.886307 37.826424 Z"/>
</svg>
