<?xml version="1.0" encoding="UTF-8"?>
<svg viewBox="0 0 579.82794 856.81744" xmlns="http://www.w3.org/2000/svg">
 <path d="m193.24 384.67c-17.266 0.53099-39.673 16.404-45.388 33.877-1.5676 4.7926-2.8512 10.153-2.8367 11.892 0.03102 3.7345 3.3051 12.821 7.8556 21.93 1.7925 3.5884 2.9216 6.7468 2.5094 7.0373-28.727 20.251-45.865 41.307-57.117 70.209-6.8318 17.549-8.634 33.244-10.092 87.339-0.97928 36.328-0.79914 42.777 1.6366 48.606 3.0921 7.4004 3.7205 16.042 1.2547 17.566-1.5905 0.98298-12.906-7.62-21.276-16.202-8.5517-8.7694-23.844-32.598-28.531-44.46-8.5555-21.652-11.456-36.717-11.456-59.026 0-11.323 0.69913-22.343 1.582-24.549s2.9338-8.3575 4.5279-13.638 4.5882-13.136 6.6554-17.457c5.0003-10.451 22.059-33.004 28.913-38.241 6.4204-4.9063 7.0925-8.8998 1.5275-8.8921-5.24 0.00723-27.612 18.967-39.223 33.223-5.0706 6.2257-12.656 18.362-16.857 27.004-6.8921 14.178-9.0743 21.252-15.002 48.334-3.701 16.909-1.9888 45.558 4.4188 73.864 1.304 5.7608 2.5002 21.472 2.6731 34.914 0.2228 17.326 0.98865 25.435 2.6731 27.876 1.3068 1.8938 2.4003 5.2105 2.4003 7.3646s1.1024 6.5029 2.4549 9.6558 5.0309 12.013 8.1829 19.694c10.057 24.508 22.463 40.872 36.114 47.734 11.209 5.6343 27.782 8.0094 40.424 5.7826 13.412-2.3624 17.566-5.6609 17.566-13.966 0-5.3836-1.3972-10.992-8.8921-36.168-2.4687-8.2928-2.0066-16.475 0.92739-16.475 2.7994 0 7.9647 6.5092 7.9647 10.038 0 1.2468 2.4654 7.5594 5.5098 14.02s7.944 16.835 10.856 23.076c7.4693 16.008 19.692 36.061 28.04 46.043 6.6763 7.9822 28.157 23.785 32.35 23.785 1.045 0 3.6561 1.075 5.7826 2.4003s7.7853 2.8872 12.547 3.4914 9.4141 1.8858 10.365 2.8368c2.5741 2.5741 9.5499 2.1525 24.494-1.582 14.995-3.7471 21.131-7.1158 22.803-12.383 1.0955-3.4515-1.6287-14.774-4.4188-18.33-1.6853-2.1481-7.4433-19.641-10.31-31.422-3.3334-13.697-4.3492-37.639-2.0184-47.297 3.9646-16.429 7.1409-18.217 40.314-22.476 16.552-2.1248 23.295-3.4966 46.261-9.4376 27.227-7.0434 59.537-25.673 77.083-44.46 15.417-16.508 19.541-24.68 30.495-60.499 1.3595-4.4453 2.4057-15.434 2.4003-25.312-0.00873-16.047-0.47481-18.373-5.5644-28.804-10.466-21.449-30.286-40.879-45.661-44.788-5.4113-1.3757-19.49 5.2997-26.567 12.602-4.9046 5.0602-5.4146 6.5267-4.637 13.256 0.48166 4.168 2.5488 13.082 4.5824 19.803 9.2974 30.726 12.922 63.661 8.2375 74.683-4.5373 10.675-28.968 30.931-37.314 30.931-1.7744 0-4.1574 0.93876-5.2916 2.073-1.7733 1.7733-10.934 3.5523-28.313 5.5644-8.6343 0.99963-13.165 3.4257-18.766 9.9286-8.0308 9.324-12.735 9.8064-29.186 3.1641-12.535-5.0614-14.419-5.3651-21.712-3.655-17.397 4.0794-16.662 4.1301-22.258-1.8548-2.8954-3.0971-7.0728-8.6446-9.274-12.329-5.2337-8.7601-10.365-13.365-14.784-13.365-6.1255 0-24.426-10.208-34.641-19.312-10.911-9.7248-18.246-21.378-24.112-38.296-5.667-16.343-5.6413-49.085 0.05455-68.9 4.2535-14.797 15.612-38.161 23.621-48.661 4.7098-6.1749 10.066-8.211 12.274-4.637 2.3851 3.8592 11.063 1.6196 19.421-5.0188 4.686-3.7222 15.187-10.448 23.349-14.947s15.536-8.8926 16.42-9.7649c3.5237-3.4751 1.2804-18.692-4.5279-30.604-6.379-13.083-14.615-20.418-26.513-23.621-2.1948-0.591-4.5162-0.83959-6.9828-0.76374zm178.99 25.312c-5.6139 0.18247-10.924 1.2416-14.402 3.1095-16.912 9.0841-29.722 34.829-22.094 44.406 1.2002 1.5067 6.7139 5.5452 12.22 9.0012s14.756 11.119 20.566 17.02l10.529 10.747 9.0558-0.87284c8.1781-0.7858 9.8477-1.7364 17.13-9.6558 8.4227-9.16 15.602-22.237 15.602-28.422 0-13.773-14.523-35.101-28.477-41.842-4.6089-2.2268-11.242-3.4218-17.73-3.4914-0.81091-0.0087-1.5983-0.02607-2.4003 0zm-158.58 128.04c-16.947 0.62111-36.434 18.849-38.46 41.187-1.1428 12.602 3.8762 24.816 12.383 30.004 8.7114 5.312 16.978 4.3383 25.803-3.0004 4.1714-3.4688 8.2848-7.593 9.1649-9.1649s5.1111-6.967 9.3831-12.002c7.7603-9.1454 7.746-9.1646 6.4918-19.203-1.4162-11.335-3.9201-17.092-9.874-22.53-3.8231-3.4922-8.4115-5.1389-13.256-5.2916-0.54071-0.01706-1.0899-0.02004-1.6366 0zm104.74 13.693c-7.7439 0.13965-14.43 5.554-20.894 16.584-5.8869 10.045-4.9714 17.618 4.5279 37.423 7.7803 16.221 9.4798 18.689 15.766 23.021 5.6402 3.8874 11.545 3.5684 20.075-1.091 10.473-5.721 14.85-14.771 14.838-30.822-0.01469-19.988-7.838-34.25-23.021-42.06-4.0411-2.0786-7.7724-3.1184-11.292-3.055zm-107.47 6.71c3.1567-2e-5 5.728 3.5999 5.728 8.0192s-2.5714 8.0193-5.728 8.0193-5.728-3.5999-5.728-8.0193 2.5713-8.0192 5.728-8.0192zm110.96 12.602c3.1567-1e-5 5.728 3.5453 5.728 7.9647s-2.5714 8.0193-5.728 8.0193-5.728-3.5999-5.728-8.0193 2.5714-7.9647 5.728-7.9647zm-79.374 67.864c-5.7512 0.16653-10.35 1.0353-12.22 2.7276-5.6807 5.141-3.9607 8.8828 6.4372 13.802 5.3148 2.5143 10.922 6.4685 12.438 8.783s3.0481 4.2006 3.4368 4.2006 3.835-1.9639 7.6374-4.3642 8.5262-4.3642 10.529-4.3642c8.7256 0 14.109-8.8235 8.2375-13.529-5.7917-4.6413-23.843-7.6218-36.496-7.2555zm-10.583 45.933c0.47144-0.01611 0.99137-0.01709 1.5275 0 2.8592 0.09116 6.6192 0.69035 11.292 1.7457 6.8363 1.5438 15.82 2.7822 19.966 2.7822 9.5562 0 11.414 2.862 5.2916 8.1284-4.0462 3.4804-6.6368 4.0914-17.675 4.0914-11.978 0-13.379-0.38335-19.093-5.4007-8.1401-7.1471-8.3808-11.105-1.3093-11.347z"/>
 <path d="m417.28 240.37 25.502 24.803-19.254 19.782-25.502-24.803 19.254-19.782m35.892 12.622-23.995-23.337 11.674-11.994c5.104-5.244 10.471-8.4131 16.101-9.5072s14.386-0.20821 26.27 2.6576l18.053 4.0651c7.452 1.8912 13.413 2.6348 17.882 2.231 4.5525-0.32243 8.067-1.7557 10.543-4.2998 4.4975-4.621 5.3722-11.047 2.6243-19.279-2.6646-8.1503-8.5193-16.624-17.564-25.421-6.6165-6.435-14.578-12.409-23.884-17.923-9.2227-5.4323-19.589-10.36-31.099-14.782l14.251-14.642c10.753 4.6975 20.857 10.229 30.312 16.595 9.5387 6.4475 18.621 13.866 27.248 22.256 15.41 14.988 25.312 29.521 29.707 43.599 4.478 14.159 2.6995 25.367-5.3354 33.622-3.8409 3.946-9.0122 6.244-15.514 6.8942-6.4516 0.59818-15.619-0.53564-27.503-3.4015l-17.574-4.0544c-6.3116-1.3882-10.987-2.1959-14.026-2.4231-2.9053-0.19775-5.3246 0.02658-7.2579 0.67298-1.5639 0.60158-3.2294 1.559-4.9966 2.8723s-3.965 3.3198-6.5928 6.0198l-9.3238 9.5794"/>
 <path d="m280.22 304.59 25.718 9.8892-6.6099 17.19-25.718-9.8892 6.6099-17.19m28.783-0.35147-24.197-9.3046 4.0076-10.422c1.7522-4.5568 4.3745-7.8469 7.8671-9.8702s9.7854-3.5135 18.879-4.4707l13.718-1.6388c5.7335-0.54001 10.064-1.4643 12.991-2.773 3.0112-1.2761 4.9419-3.0195 5.7921-5.2303 1.5439-4.0154 0.00589-8.3356-4.6141-12.961-4.5358-4.5924-11.364-8.6424-20.486-12.15-6.6724-2.5656-14.113-4.5203-22.321-5.8642-8.1241-1.3113-16.864-2.0306-26.218-2.1581l4.8924-12.723c8.928 0.48122 17.689 1.649 26.283 3.5034 8.6782 1.887 17.367 4.5031 26.066 7.8481 15.54 5.9758 27.157 12.954 34.849 20.936 7.7764 8.0138 10.285 15.608 7.5271 22.781-1.3187 3.429-4.0967 6.1154-8.3342 8.0593-4.2204 1.8988-10.877 3.3268-19.97 4.284l-13.387 1.5332c-4.7851 0.59412-8.2564 1.1755-10.414 1.7441-2.0559 0.55601-3.6385 1.2681-4.7478 2.1362-0.87117 0.75262-1.6936 1.757-2.4674 3.013s-1.6119 3.0572-2.514 5.4033l-3.2009 8.3241"/>
 <path d="m222.31 237.14 26.98-10.183 9.5289 33.23-26.98 10.183-9.5289-33.23m20.668-29.114-25.385 9.581-5.7774-20.148c-2.5261-8.809-3.3614-16.516-2.5061-23.122s4.1947-15.164 10.018-25.674l8.6228-16.158c3.7249-6.5286 6.1072-12.261 7.1469-17.196 1.1282-4.9686 1.0796-9.5899-0.14587-13.864-2.226-7.7623-6.9507-12.939-14.174-15.529-7.1349-2.6231-15.487-2.129-25.056 1.4825-6.9998 2.6421-14.049 6.9942-21.148 13.056-7.0105 6.0292-13.975 13.587-20.894 22.675l-7.0529-24.596c6.9033-8.1148 14.258-14.999 22.064-20.651 7.8944-5.6858 16.405-10.251 25.531-13.696 16.303-6.153 30.586-6.8555 42.847-2.1075 12.35 4.715 20.513 14.006 24.49 27.874 1.9007 6.6288 2.119 13.554 0.65505 20.776-1.4892 7.135-5.1455 15.958-10.969 26.468l-8.4696 15.666c-2.989 5.6712-5.0319 10.019-6.1287 13.042-1.0333 2.9032-1.5917 5.5788-1.6752 8.0266-0.00646 2.0324 0.23258 4.4069 0.71713 7.1237s1.3769 6.3432 2.6775 10.878l4.6144 16.092"/>
 <path d="m454.19 365.25 17.841 23.018-18.769 13.175-17.841-23.018 18.769-13.175m28.176 14.713-16.786-21.657 11.379-7.9879c4.9753-3.4926 9.8843-5.3044 14.727-5.4354s12.019 1.7181 21.528 5.5476l14.486 5.5886c5.9504 2.476 10.816 3.8463 14.596 4.1109 3.8385 0.34015 6.9647-0.33698 9.3787-2.0314 4.3841-3.0776 5.9975-8.0619 4.8401-14.953-1.0991-6.8154-4.8125-14.305-11.14-22.469-4.6288-5.9718-10.442-11.754-17.439-17.347-6.9388-5.5174-14.9-10.784-23.884-15.8l13.892-9.7514c8.3153 5.1347 15.975 10.846 22.979 17.135 7.0624 6.3643 13.611 13.439 19.646 21.225 10.78 13.909 17.033 26.736 18.759 38.481 1.7836 11.821-1.2409 20.48-9.0733 25.978-3.744 2.628-8.3701 3.7744-13.878 3.4391-5.4592-0.36996-12.944-2.4696-22.453-6.2991l-14.089-5.5174c-5.0692-1.9276-8.8546-3.1805-11.356-3.7587-2.3941-0.53722-4.4413-0.67594-6.1414-0.41616-1.3861 0.27259-2.906 0.81421-4.5595 1.6248s-3.7613 2.115-6.3228 3.9131l-9.0888 6.3799"/>
 <path d="m147.04 321 24.752-21.193 11.978 13.989-24.752 21.193-11.978-13.989m17.088-28.663-23.288 19.94-7.2624-8.4817c-3.1753-3.7084-4.6467-7.7303-4.4142-12.066s2.6547-11.214 7.2668-20.636l6.7765-14.298c2.967-5.9131 4.7278-10.603 5.2824-14.068 0.63578-3.5352 0.18343-6.2024-1.357-8.0017-2.7981-3.2677-7.7441-3.6145-14.838-1.0405-7.0127 2.5047-14.909 7.5154-23.687 15.032-6.4216 5.4986-12.74 12.022-18.955 19.571-6.1341 7.4796-12.09 15.825-17.869 25.036l-8.8657-10.354c5.8489-8.6352 12.235-16.808 19.158-24.518 7.0045-7.7792 14.693-15.253 23.065-22.422 14.957-12.806 28.471-21.292 40.543-25.456 12.154-4.2335 20.73-3.4313 25.729 2.4066 2.3893 2.7907 3.2054 6.7055 2.4485 11.744-0.78852 5.0025-3.4888 12.215-8.1007 21.636l-6.6742 13.924c-2.3429 4.997-3.9027 8.6872-4.6796 11.07-0.72707 2.2772-1.0227 4.153-0.88702 5.6277 0.17246 1.1888 0.60836 2.4382 1.3077 3.7485s1.8663 2.9202 3.5012 4.8294l5.8005 6.7743"/>
 <path d="m351.41 126.03h32.585v25.285h-32.585v-25.285m31.622-14.634h-30.659v-15.331c-6e-5 -6.7029 1.4981-12.211 4.4945-16.525s9.31-9.3244 18.941-15.032l14.447-8.8599c6.0996-3.5173 10.487-6.8356 13.163-9.9549 2.7822-3.1191 4.1734-6.3047 4.1735-9.5567-1.2e-4 -5.9065-3.5315-10.685-10.594-14.335-6.9559-3.65-16.212-5.4751-27.77-5.4752-8.454 1.3e-4 -17.497 1.1615-27.128 3.4842-9.5242 2.3229-19.476 5.7076-29.856 10.154v-18.715c10.059-3.7827 20.225-6.6033 30.498-8.4617 10.38-1.8581 21.081-2.7872 32.104-2.7874 19.69 1.6e-4 35.474 3.2189 47.353 9.6563 11.985 6.4376 17.978 14.932 17.978 25.485-1.5e-4 5.0439-1.9264 9.8555-5.7787 14.435-3.8526 4.513-10.594 9.6232-20.225 15.331l-14.126 8.5612c-5.0297 3.1193-8.6146 5.5748-10.755 7.3666-2.0333 1.7256-3.478 3.4179-4.334 5.077-0.64216 1.3938-1.1237 3.0861-1.4447 5.077s-0.48164 4.712-0.48154 8.163v12.245"/>
</svg>
