<?xml version="1.0" encoding="UTF-8"?>
<svg enable-background="new 0 0 2626 1728" version="1.1" viewBox="0 0 2626 1728" xmlns="http://www.w3.org/2000/svg">
 <path d="m1286.6 77.012c68.688-19.097-52.043-56.678 1288 510.23 6.163 2.61 13.356 4.869 16.865 11.141 3.794 12.325 0.833 30.835-14.211 33.84-149.57 35.726-299.23 71.079-448.82 106.67 106.68 85.972 189.63 83.005 201.61 153.74 13.552 75.21-59.531 148.3-125.64 187.73 2.352 174.63-177.72 267.95-70.07 490.66 19.325 32.691-22.154 51.882-35.77 31.339-38.609-63.423-47.352-121.76-50.683-129.33-6.842 59.28-9.411 78.33-3.728 146.1-0.57 21.69-36.121 27.633-44.498 8.049-3.948-19.409-5.132-39.279-6.93-58.973-6.507 74.514 7.368 71.024-35.835 86.189-52.091 18.367-139.12-14.302-130.97-48.27 92.809-309.39 209.36-372.84 272.67-504.79 52.932-106.38 69.759-67.837 126.92-127.68 34.336-35.824 33.524-69.891 22.852-84.654-4.879-4.034-130.3-53.292-198.7-131.15-4.606 0.855-9.145 1.864-13.663 2.873 30.046 74.281 51.999 151.87 64.784 231 3.974 19.153-13.708 35.093-34.19 26.076-451.43-196.69-582.3 17.681-927.79-64.872-117.26-27.865-303.39-130.26-636.62-20.308-21.539 5.909-31.893-14.868-28.554-30.111 14.825-93.339 48.204-183.7 97.593-264.29-175.76-75.685-351.54-151.37-527.2-227.25-18.444-7.983-12.194-39.432 6.821-42.48 411.91-97.177 823.86-194.22 1235.7-291.49m-323.09 99.852c-302.54 71.561-605.23 142.46-907.7 214.33 175.84 75.903 351.75 151.65 527.64 227.45 69.082-105.75 204.1-227.19 272.21-233.74 18.883-2.588 38.007-2.04 56.999-3.619 429.51-30.555 930.56 72.37 971.3 117.64 10.472 11.562 91.32 120.19 143.03 240.3 181.22-42.744 362.3-86.079 543.5-128.89-410.88-173.8-821.58-348-1232.6-521.48-124.9 28.818-249.58 58.82-374.41 88.01m-123.63 233.87c-24.918 8.559-292.48 161.26-344.54 499.83 347.16-116.39 558.48 2.438 673.83 26.032 323.54 68 466.66-136.46 909.55 61.758-38.061-244.18-169.78-439.78-220.74-490.62-328.86-97.944-676.77-131.15-1018.1-97.001m1235.1 340.83c132.4 129.64 253.73 97.59 196.83 198.02-28.954 48.52-54.721 67.35-81.562 84.851 5.241 5.79 8.333 13.115 10.527 20.549 42.305-25.396 80.772-61.21 99.414-107.77 33.101-87.193-40.115-101.03-95.905-130.05-37.261-19.036-72.043-43.073-102.53-71.737-8.948 1.952-17.786 4.386-26.778 6.141m23.62 404.54c-6.533 14.143-165.08 168.59-250.34 455.14 31.348 27.778 76.143 35.965 119.3 14.781-2.368-113.01 31.076-226 92.22-320.85-41.625 98.032-56.209 207.8-38.555 312.96-10.988-95.861 4.386-194.9 45.836-282.16-14.183 92.457 5.816 175.68 49.696 253.17-22.22-70.368-100.93-135.93 52.985-416.34 3.185-16.983 15.813-100.08 1.821-126.15-23.149-6.654-61.942 84.422-72.965 109.46z" fill="#fff"/>
 <path d="m1337.9 88.855c410.99 173.48 821.69 347.67 1232.6 521.48-181.19 42.81-362.28 86.145-543.5 128.89-27.808-64.587-62.416-126.21-102.9-183.67-29.55-42.061-35.809-62.34-67.921-74.653-12.371-4.84-440.57-135.39-943.52-99.611-69.92 5.813-70.51-4.978-143.43 44.323-72.131 53.292-136.61 117.77-185.78 193.04-175.89-75.794-351.8-151.54-527.64-227.45 190.59-45.284 1201.3-283.7 1282.1-302.34z"/>
 <path d="m1858 507.74c11.512 11.487 175.4 199.73 220.74 490.62-441.98-197.81-586.79 6.077-909.55-61.758-115.25-23.574-326.82-142.38-673.83-26.032 31.843-207.12 151.82-385.43 330.52-492.16 34.569-19.332 513.63-65.097 1032.1 89.325z"/>
 <path d="m2075 751.57c8.992-1.755 17.83-4.189 26.778-6.141 120.56 113.36 241.69 87.834 198.43 201.79-18.641 46.56-57.109 82.373-99.414 107.77-2.193-7.435-5.285-14.76-10.527-20.549 26.621-17.358 52.475-36.108 81.562-84.851 48.147-84.974-32.167-76.59-135.64-147.31-22.151-14.651-42.24-32.152-61.188-50.705z"/>
 <path d="m2171.6 1046.6c13.861 25.826 1.466 108.62-1.821 126.15-150.81 274.76-78.427 335.77-52.985 416.34-43.791-77.334-63.904-160.56-49.696-253.17-41.45 87.264-56.823 186.3-45.836 282.16-17.654-105.16-3.07-214.92 38.555-312.96-61.144 94.852-94.589 207.84-92.22 320.85-43.078 21.142-87.887 13.059-119.3-14.781 85.759-288.21 242.9-439.01 250.34-455.14 12.402-28.171 50.385-115.95 72.965-109.46z"/>
</svg>
