<?xml version="1.0" encoding="UTF-8"?>
<svg viewBox="0 0 385.5 351" xmlns="http://www.w3.org/2000/svg">
 <g fill="#fff" fill-rule="evenodd" stroke="#000" stroke-width="4">
  <path d="m69.25 173l1.75-2 1.25 9q1.25 9 2.75 30t0.5 23.5-1.25 6.5l-0.25 4 7.5 1.25q7.5 1.25 9.5 0.25t5.75-5.25l3.75-4.25v-3.5q0-3.5-2-6l-2-2.5 0.5-9q0.5-9 0-16t-0.75-7.25l-0.25-0.25 6.5 0.25q6.5 0.25 6.25 8.25t-0.75 9-0.75 5l-0.25 4 3.5 1.25q3.5 1.25 14.5-1.25t12.25-6.75l1.25-4.25-0.5-1q-0.5-1-4.25-2.5l-3.75-1.5-0.25-9.5q-0.25-9.5-0.75-10.5l-0.5-1-1.75-1.75q-1.75-1.75-4-4.5l-2.25-2.75-0.75-11-0.75-11 2.25 1.5q2.25 1.5 4.25 3.5t7 7 17.25 11.25 20.25 8.5l8 2.25-1.25-3q-1.25-3-4-5.75t-7.5-5.5-10-5l-5.25-2.25-2.75-4.75q-2.75-4.75-12.5-16.5t-14.75-14l-5-2.25 0.5-1.5 0.5-1.5 2.75-3q2.75-3 14.25-16.5t17-23.5 5.5-12.5v-2.5l-1.75-2.75q-1.75-2.75-11.75-7.75t-18.5-7-13.5 0.25l-5 2.25-2.75-5q-2.75-5-4.5-9.5l-1.75-4.5 22-0.5 22-0.5-1.5 1.75q-1.5 1.75-2.5 3t10 4.5 22.25 9 14.75 10.25l3.5 4.5v5.5q0 5.5-3 13l-3 7.5 31.75-33 31.75-33-7-1.25-7-1.25 3-1.5q3-1.5 20.5-7l17.5-5.5 4.75 6.75q4.75 6.75 7 11.25l2.25 4.5-9.5-0.75-9.5-0.75-3.75 5.75q-3.75 5.75-13 21t-12.5 20.5-12.5 20.5-12.5 20.5-12 19.5-12 19.5-5.5 9l-2.25 3.75 3-1.5q3-1.5 12-6t23-8.5 31.5-6.5 29.5-3.5l12-1-3.5-5.25-3.5-5.25 15.5 3.25q15.5 3.25 25.75 6l10.25 2.75-1.5 2.5q-1.5 2.5-13.25 13.5l-11.75 11-2.25-3.5q-2.25-3.5-4-5.75l-1.75-2.25-16 1.5q-16 1.5-31.5 6t-21.25 9.75-14 18.5-11 18-11.5 19-12 19.5-14 23.5-13.75 23.25l-3 5-76 0.25-76 0.25 0.25-27 0.25-27 7.25-8.25q7.25-8.25 33-36t27.5-29.75z"/>
  <path d="m116 119.25v2.75l-0.5 1.5-0.5 1.5 5 2.25q5 2.25 14.75 14t12.5 16.5l2.75 4.75 5.25 2.25q5.25 2.25 10 5t7.5 5.5 4 5.75l1.25 3-8-2.25q-8-2.25-20.25-8.5t-17.25-11.25-7-7-4.25-3.5l-2.25-1.5 0.75 11 0.75 11 2.25 2.75q2.25 2.75 4 4.5l1.75 1.75 0.5 1q0.5 1 0.75 10.5l0.25 9.5 3.75 1.5q3.75 1.5 4.25 2.5l0.5 1-1.25 4.25q-1.25 4.25-12.25 6.75t-14.5 1.25l-3.5-1.25 0.25-4q0.25-4 0.75-5t0.75-9-6.25-8.25l-6.5-0.25 0.25 0.25q0.25 0.25 0.75 7.25t0 16l-0.5 9 2 2.5q2 2.5 2 6v3.5l-3.75 4.25q-3.75 4.25-5.75 5.25t-9.5-0.25l-7.5-1.25 0.25-4q0.25-4 1.25-6.5t-0.5-23.5-2.75-30l-1.25-9 0.75-4q0.75-4 2.5-14.5l1.75-10.5-1.75 0.5q-1.75 0.5-8 5.25l-6.25 4.75-17.5 1q-17.5 1-21.25-1.25l-3.75-2.25v-1.5q0-1.5 1.75-4.25t10.25-4.75 8.75-5.25 2-5l1.75-1.75 1.5-0.25q1.5-0.25 3.75 6.25l2.25 6.5 1.75-0.75q1.75-0.75 10.5-8t18-10.5l9.25-3.25-4.5-4.5q-4.5-4.5-7.75-11.75t-2.75-15.25 4.25-13.75 7.75-7.75 14-3.5 14.5 0l4.5 1.5 0.5 0.5q0.5 0.5 4.75 5.75t5.75 15.75 0.5 13.5-3.5 7-6.75 7.75-4.25 6.5z"/>
 </g>
</svg>
